<svg width="25" height="25" viewBox="0 0 25 25" fill="none" xmlns="http://www.w3.org/2000/svg">
<g clip-path="url(#clip0_11_403)">
<path d="M1.5625 1.70104C-0.402079 3.74166 4.11272e-06 5.90937 4.11272e-06 12.4948C4.11272e-06 17.9635 -0.954163 23.4458 4.03959 24.7365C5.59896 25.1375 19.4156 25.1375 20.9729 24.7344C23.0521 24.1979 24.7438 22.5115 24.975 19.5708C25.0073 19.1604 25.0073 5.83646 24.974 5.41771C24.7281 2.28541 22.8 0.480206 20.2594 0.114581C19.6771 0.0302058 19.5604 0.0052058 16.5729 -2.53692e-06C5.97605 0.0052058 3.65313 -0.466669 1.5625 1.70104Z" fill="url(#paint0_linear_11_403)"/>
<path d="M12.4979 3.2698C8.71563 3.2698 5.12397 2.93334 3.75209 6.45417C3.18543 7.90834 3.26772 9.79688 3.26772 12.501C3.26772 14.874 3.19168 17.1042 3.75209 18.5469C5.12084 22.0698 8.74168 21.7323 12.4958 21.7323C16.1177 21.7323 19.8521 22.1094 21.2406 18.5469C21.8083 17.0781 21.725 15.2177 21.725 12.501C21.725 8.8948 21.924 6.56667 20.175 4.81876C18.4042 3.04792 16.0094 3.2698 12.4938 3.2698H12.4979ZM11.6708 4.93334C19.5604 4.92084 20.5646 4.04376 20.0104 16.2281C19.8135 20.5375 16.5323 20.0646 12.499 20.0646C5.1448 20.0646 4.93334 19.8542 4.93334 12.4969C4.93334 5.05417 5.51668 4.93751 11.6708 4.93126V4.93334ZM17.425 6.46563C16.8135 6.46563 16.3177 6.96147 16.3177 7.57292C16.3177 8.18438 16.8135 8.68022 17.425 8.68022C18.0365 8.68022 18.5323 8.18438 18.5323 7.57292C18.5323 6.96147 18.0365 6.46563 17.425 6.46563ZM12.4979 7.76042C9.88022 7.76042 7.75834 9.88334 7.75834 12.501C7.75834 15.1188 9.88022 17.2406 12.4979 17.2406C15.1156 17.2406 17.2365 15.1188 17.2365 12.501C17.2365 9.88334 15.1156 7.76042 12.4979 7.76042ZM12.4979 9.42397C16.5656 9.42397 16.5708 15.5781 12.4979 15.5781C8.43126 15.5781 8.42501 9.42397 12.4979 9.42397Z" fill="white"/>
</g>
<defs>
<linearGradient id="paint0_linear_11_403" x1="1.61044" y1="23.4032" x2="24.8453" y2="3.29372" gradientUnits="userSpaceOnUse">
<stop stop-color="#8E7F42"/>
<stop offset="0.5" stop-color="#FF543E"/>
<stop offset="1" stop-color="#C837AB"/>
</linearGradient>
<clipPath id="clip0_11_403">
<rect width="25" height="25" fill="white"/>
</clipPath>
</defs>
</svg>
